<svg width="128" height="22" viewBox="0 0 128 22" fill="none" xmlns="http://www.w3.org/2000/svg">
<path d="M3.30114 21H0.715909L8.19318 0.636363H10.7386L18.2159 21H15.6307L9.54545 3.85795H9.38636L3.30114 21ZM4.25568 13.0455H14.6761V15.233H4.25568V13.0455ZM22.581 0.636363L27.831 9.10795H27.9901L33.2401 0.636363H36.1435L29.7401 10.8182L36.1435 21H33.2401L27.9901 12.6875H27.831L22.581 21H19.6776L26.2401 10.8182L19.6776 0.636363H22.581ZM41.8185 0.636363V21H39.3526V0.636363H41.8185ZM63.9446 10.8182C63.9446 12.9659 63.5568 14.822 62.7812 16.3864C62.0057 17.9508 60.9418 19.1572 59.5895 20.0057C58.2372 20.8542 56.6927 21.2784 54.956 21.2784C53.2192 21.2784 51.6747 20.8542 50.3224 20.0057C48.9702 19.1572 47.9063 17.9508 47.1307 16.3864C46.3551 14.822 45.9673 12.9659 45.9673 10.8182C45.9673 8.67045 46.3551 6.81439 47.1307 5.25C47.9063 3.68561 48.9702 2.47917 50.3224 1.63068C51.6747 0.782196 53.2192 0.357954 54.956 0.357954C56.6927 0.357954 58.2372 0.782196 59.5895 1.63068C60.9418 2.47917 62.0057 3.68561 62.7812 5.25C63.5568 6.81439 63.9446 8.67045 63.9446 10.8182ZM61.5582 10.8182C61.5582 9.05492 61.2633 7.56676 60.6733 6.35369C60.09 5.14062 59.2978 4.22254 58.2969 3.59943C57.3026 2.97633 56.1889 2.66477 54.956 2.66477C53.723 2.66477 52.6061 2.97633 51.6051 3.59943C50.6108 4.22254 49.8187 5.14062 49.2287 6.35369C48.6454 7.56676 48.3537 9.05492 48.3537 10.8182C48.3537 12.5814 48.6454 14.0696 49.2287 15.2827C49.8187 16.4957 50.6108 17.4138 51.6051 18.0369C52.6061 18.66 53.723 18.9716 54.956 18.9716C56.1889 18.9716 57.3026 18.66 58.2969 18.0369C59.2978 17.4138 60.09 16.4957 60.6733 15.2827C61.2633 14.0696 61.5582 12.5814 61.5582 10.8182ZM68.0909 0.636363H71.0341L77.9545 17.5398H78.1932L85.1136 0.636363H88.0568V21H85.75V5.52841H85.5511L79.1875 21H76.9602L70.5966 5.52841H70.3977V21H68.0909V0.636363Z" fill="white"/>
<path d="M97.9318 21V6.45455H102.626C103.659 6.45455 104.52 6.65341 105.212 7.05114C105.908 7.44413 106.431 7.97917 106.781 8.65625C107.136 9.33333 107.314 10.0956 107.314 10.9432C107.314 11.7907 107.139 12.5554 106.788 13.2372C106.438 13.9143 105.917 14.4517 105.226 14.8494C104.535 15.2424 103.675 15.4389 102.648 15.4389H98.9545V14.2457H102.612C103.375 14.2457 104.007 14.1037 104.509 13.8196C105.01 13.5308 105.384 13.1378 105.631 12.6406C105.882 12.1435 106.007 11.5777 106.007 10.9432C106.007 10.3087 105.882 9.7429 105.631 9.24574C105.384 8.74858 105.008 8.35795 104.501 8.07386C104 7.78977 103.363 7.64773 102.591 7.64773H99.2599V21H97.9318ZM110.169 21V10.0909H111.398V11.767H111.49C111.708 11.2178 112.087 10.7751 112.626 10.4389C113.171 10.098 113.786 9.92756 114.473 9.92756C114.577 9.92756 114.693 9.92992 114.821 9.93466C114.949 9.93939 115.055 9.94413 115.141 9.94886V11.2344C115.084 11.2249 114.984 11.2107 114.842 11.1918C114.7 11.1728 114.546 11.1634 114.381 11.1634C113.813 11.1634 113.306 11.2841 112.861 11.5256C112.42 11.7623 112.072 12.0914 111.817 12.5128C111.561 12.9342 111.433 13.4148 111.433 13.9545V21H110.169ZM121.206 21.2273C120.264 21.2273 119.43 20.9882 118.706 20.5099C117.986 20.0317 117.423 19.3712 117.016 18.5284C116.608 17.6809 116.405 16.7031 116.405 15.5952C116.405 14.4777 116.608 13.4953 117.016 12.6477C117.423 11.7955 117.986 11.1326 118.706 10.6591C119.43 10.1809 120.264 9.94176 121.206 9.94176C122.148 9.94176 122.979 10.1809 123.699 10.6591C124.419 11.1373 124.982 11.8002 125.389 12.6477C125.801 13.4953 126.007 14.4777 126.007 15.5952C126.007 16.7031 125.804 17.6809 125.396 18.5284C124.989 19.3712 124.423 20.0317 123.699 20.5099C122.979 20.9882 122.148 21.2273 121.206 21.2273ZM121.206 20.0696C121.964 20.0696 122.605 19.866 123.131 19.4588C123.656 19.0516 124.054 18.5095 124.324 17.8324C124.598 17.1553 124.736 16.4096 124.736 15.5952C124.736 14.7808 124.598 14.0327 124.324 13.3509C124.054 12.669 123.656 12.1222 123.131 11.7102C122.605 11.2983 121.964 11.0923 121.206 11.0923C120.453 11.0923 119.812 11.2983 119.281 11.7102C118.756 12.1222 118.356 12.669 118.081 13.3509C117.811 14.0327 117.676 14.7808 117.676 15.5952C117.676 16.4096 117.811 17.1553 118.081 17.8324C118.356 18.5095 118.756 19.0516 119.281 19.4588C119.807 19.866 120.448 20.0696 121.206 20.0696Z" fill="white"/>
</svg>
